<!DOCTYPE svg PUBLIC "-//W3C//DTD SVG 1.1//EN" "http://www.w3.org/Graphics/SVG/1.1/DTD/svg11.dtd">
<!-- Uploaded to: SVG Repo, www.svgrepo.com, Transformed by: SVG Repo Mixer Tools -->
<svg height="800px" width="800px" version="1.1" id="Capa_1" xmlns="http://www.w3.org/2000/svg" xmlns:xlink="http://www.w3.org/1999/xlink" viewBox="0 0 16.871 16.871" xml:space="preserve" fill="#000000">
<g id="SVGRepo_bgCarrier" stroke-width="0"/>
<g id="SVGRepo_tracerCarrier" stroke-linecap="round" stroke-linejoin="round"/>
<g id="SVGRepo_iconCarrier"> <g> <g> <path style="fill:#222831;" d="M6.847,5.772H6.822c-0.127,0.511-0.254,1.16-0.395,1.657L5.917,9.25h1.898L7.28,7.429 C7.128,6.919,6.975,6.283,6.847,5.772z"/> <path style="fill:#222831;" d="M15.837,0H1.033C0.462,0,0,0.462,0,1.033v14.805c0,0.57,0.462,1.033,1.033,1.033h14.805 c0.57,0,1.033-0.463,1.033-1.033V1.033C16.871,0.463,16.408,0,15.837,0z M8.758,12.905l-0.663-2.203H5.638l-0.612,2.203H3.014 l2.624-8.583h2.546l2.663,8.583H8.758z M13.793,12.905h-1.937V6.678h1.937V12.905z M12.813,5.914 c-0.611,0-1.019-0.434-1.007-0.969c-0.012-0.561,0.396-0.979,1.021-0.979c0.623,0,1.018,0.419,1.03,0.979 C13.857,5.48,13.45,5.914,12.813,5.914z"/> </g> </g> </g>
</svg>